<svg xmlns="http://www.w3.org/2000/svg" viewBox="0 0 84.1 99.83"><defs><style>.cls-1{fill:#f28d8b;}</style></defs><title>planeasyAsset 4</title><g id="Layer_2" data-name="Layer 2"><g id="Layer_1-2" data-name="Layer 1"><rect class="cls-1" y="78.39" width="21.44" height="21.44" rx="9.54" ry="9.54"/><rect class="cls-1" width="21.44" height="21.44" rx="9.54" ry="9.54"/><rect class="cls-1" x="32.14" y="6.96" width="51.96" height="7.52"/><rect class="cls-1" x="30.89" y="85.35" width="51.96" height="7.52"/><path class="cls-1" d="M64.15,48.1a9.6,9.6,0,0,0-4.63-1.42c-2.93-.13-5.85-.39-8.78-.46a3.46,3.46,0,0,1-2.87-1.53c-4.54-5.7-9.26-11.26-13.69-17-1.9-2.5-4.37-1.78-7.07-2.26,3,5.89,5.75,11.49,8.64,17,2.12,4.07,2.2,4-2.38,4.35-4.41.31-8.83.58-13.24,1a1.92,1.92,0,0,1-2.26-1.15c-1-2-2.28-3.88-3.27-5.9-.8-1.61-2.14-1.17-3.36-1.13-.81,0-.42.69-.32,1.1.55,2,1.08,4.08,1.68,6.1a21.5,21.5,0,0,1,0,5.86c-.48,1.92-1,3.82-1.45,5.75-.13.62-.91,1.64.07,1.88s2.29.69,3.09-.67c1.27-2.17,2.6-4.32,3.91-6.47.35-.56.57-1.21,1.49-1.12,6,.54,11.93,1,18.15,1.57-3.6,7-7.12,13.85-10.75,20.92,3.15,0,5.67-.06,7.75-2.92,4-5.51,8.52-10.63,12.75-16a4.3,4.3,0,0,1,3.55-1.92c2.92-.05,5.84-.31,8.77-.48a7.94,7.94,0,0,0,4.29-1.09C65.88,50.89,65.88,49.15,64.15,48.1Z"/></g></g></svg>