<svg xmlns="http://www.w3.org/2000/svg" viewBox="0 0 337.34 46.77"><defs><style>.cls-1{fill:#f28d8b;}.cls-2{fill:#9ad7d9;}</style></defs><title>planeasyAsset 1</title><g id="Layer_2" data-name="Layer 2"><g id="Layer_1-2" data-name="Layer 1"><rect class="cls-1" x="168.41" y="36.72" width="10.04" height="10.04" rx="4.47" ry="4.47"/><rect class="cls-1" x="168.41" width="10.04" height="10.04" rx="4.47" ry="4.47"/><rect class="cls-1" x="183.47" y="3.26" width="24.34" height="3.52"/><rect class="cls-1" x="182.88" y="39.98" width="24.34" height="3.52"/><path class="cls-1" d="M198.47,22.53a4.49,4.49,0,0,0-2.18-.66c-1.37-.06-2.74-.18-4.11-.22a1.59,1.59,0,0,1-1.34-.71c-2.13-2.67-4.34-5.28-6.41-8-.9-1.17-2.06-.83-3.32-1.06,1.4,2.76,2.69,5.38,4,8,1,1.91,1,1.89-1.11,2s-4.14.28-6.21.45a.91.91,0,0,1-1.06-.54c-.47-.94-1.07-1.82-1.53-2.76-.37-.76-1-.56-1.57-.53-.38,0-.2.32-.15.51.25.95.5,1.91.79,2.86a10.35,10.35,0,0,1,0,2.74c-.23.9-.48,1.79-.68,2.7-.06.29-.43.76,0,.88s1.07.32,1.45-.32c.6-1,1.22-2,1.83-3,.16-.26.27-.56.7-.52,2.79.25,5.59.48,8.5.73l-5,9.8c1.47,0,2.65,0,3.63-1.37,1.87-2.57,4-5,6-7.48a2,2,0,0,1,1.66-.89c1.37,0,2.74-.15,4.11-.23a3.72,3.72,0,0,0,2-.51A1,1,0,0,0,198.47,22.53Z"/><path class="cls-1" d="M242.13,31.26H223.39l-3.15,12.27h-4.43l7.75-30.92c.45-1.36.91-2.67,1.36-3.92a14.51,14.51,0,0,1,1.66-3.27,7,7,0,0,1,2.51-2.22,8.58,8.58,0,0,1,7.2.13,8,8,0,0,1,2.39,2A10.21,10.21,0,0,1,240.25,8a30.23,30.23,0,0,1,1,2.94q2.05,8.27,4.13,16.35t4.31,16.27h-4.35Zm-.86-3.4-3.57-13.8c-.4-1.08-.74-2-1-2.9a22.7,22.7,0,0,0-.93-2.38,5,5,0,0,0-1.49-2.13A2.76,2.76,0,0,0,232.46,6a2.82,2.82,0,0,0-1.7.72,4.17,4.17,0,0,0-1.24,1.88c-.23.57-.41,1.06-.55,1.49s-.27.84-.39,1.23-.21.81-.29,1.24-.22.92-.39,1.49l-3.57,13.8Z"/><path class="cls-1" d="M288,32.54a5.06,5.06,0,0,0-2.21-4.17,15.7,15.7,0,0,0-5-2.09c-1.95-.48-4.06-.89-6.3-1.23a28.22,28.22,0,0,1-6.22-1.66,12.13,12.13,0,0,1-4.72-3.33q-1.87-2.16-1.79-6.26a9.1,9.1,0,0,1,1.45-5.11A12.75,12.75,0,0,1,266.87,5a16.31,16.31,0,0,1,4.89-2.17A20.68,20.68,0,0,1,277,2.14a20.43,20.43,0,0,1,4.43.51,17.84,17.84,0,0,1,4.3,1.53,12.32,12.32,0,0,1,3.5,2.64,8.37,8.37,0,0,1,2,3.83h-4.18a9.44,9.44,0,0,0-2.25-2.76,9.79,9.79,0,0,0-2.56-1.5,11.59,11.59,0,0,0-2.68-.68A22,22,0,0,0,277,5.54a16.58,16.58,0,0,0-3.45.39,10.26,10.26,0,0,0-3.36,1.32,7.7,7.7,0,0,0-2.56,2.55,6.43,6.43,0,0,0-.85,4,6,6,0,0,0,2.13,4.73,12.52,12.52,0,0,0,4.81,2.17,52.09,52.09,0,0,0,6.18,1.07A29.16,29.16,0,0,1,286,23.13a11.49,11.49,0,0,1,4.81,3.11q2,2.13,2.13,6.3A9.33,9.33,0,0,1,291.61,38a12.36,12.36,0,0,1-3.83,3.75,17.76,17.76,0,0,1-5.28,2.17,24.86,24.86,0,0,1-5.63.68,30.93,30.93,0,0,1-4.72-.38,18.51,18.51,0,0,1-4.69-1.41A14.7,14.7,0,0,1,263.37,40a11.7,11.7,0,0,1-2.85-4.47h4.35a6.41,6.41,0,0,0,2.47,2.9,15.52,15.52,0,0,0,3.57,1.74,18.24,18.24,0,0,0,3.66.86,10.08,10.08,0,0,0,2.73,0,38.21,38.21,0,0,0,4.13-.9,11.61,11.61,0,0,0,3.45-1.53,7.35,7.35,0,0,0,2.3-2.47A7.16,7.16,0,0,0,288,32.54Z"/><path class="cls-1" d="M318.27,27.18a4.69,4.69,0,0,1-1.79-1.62q-.86-1.2-1.11-1.62-1.37-2.13-2.85-4.77c-1-1.76-2-3.58-3-5.45l-3-5.54c-1-1.81-1.92-3.49-2.77-5H308q2.48,4.68,5.37,9.58C315.26,16,317,19.08,318.69,22c.68,1.25,1.24,1.9,1.66,2s1-.51,1.75-1.7c1.82-3,3.7-6.09,5.66-9.42s3.82-6.54,5.58-9.66h4c-.9,1.65-1.86,3.38-2.85,5.19s-2,3.64-3,5.45-2.05,3.62-3.07,5.41-2,3.45-2.89,5a19.38,19.38,0,0,1-1.15,1.57,4.8,4.8,0,0,1-1.58,1.32V43.7h-4.51Z"/><path class="cls-2" d="M16.35,3.42a15.77,15.77,0,0,1,4.22.63,11.55,11.55,0,0,1,4.17,2.22A13,13,0,0,1,28,10.4a14.44,14.44,0,0,1,1.4,6.39,10.48,10.48,0,0,1-1,4.55A10.86,10.86,0,0,1,25.68,25a13.2,13.2,0,0,1-4.17,2.43,15.25,15.25,0,0,1-5.33.9H4.43q-.09,4.17-.09,8.3v7.28H0V3.42ZM15.5,25a20.91,20.91,0,0,0,3.58-.47,11.23,11.23,0,0,0,3.28-1.23,6.51,6.51,0,0,0,2.38-2.34,7.45,7.45,0,0,0,.9-3.88,11.52,11.52,0,0,0-1-5.06,9.29,9.29,0,0,0-2.52-3.24A9.41,9.41,0,0,0,18.82,7a12.42,12.42,0,0,0-3.4-.51h-11V25.05Z"/><path class="cls-2" d="M68.73,43.87H57.32a36.1,36.1,0,0,1-5.79-.6,11,11,0,0,1-4.73-2,10.13,10.13,0,0,1-3.15-4.47A21.74,21.74,0,0,1,42.5,29V3.25h4.17l.09,25.8a15.29,15.29,0,0,0,.89,6.26,7.72,7.72,0,0,0,2.64,3.41,8.86,8.86,0,0,0,3.88,1.45,34.21,34.21,0,0,0,4.6.29h10Z"/><path class="cls-2" d="M105.52,31.44H86.79L83.63,43.7H79.21L87,12.78c.45-1.36.9-2.66,1.36-3.91A14,14,0,0,1,90,5.59a7,7,0,0,1,2.51-2.22,7.49,7.49,0,0,1,3.83-.72,7.72,7.72,0,0,1,3.37.85,8,8,0,0,1,2.38,2,10.13,10.13,0,0,1,1.58,2.68q.6,1.5,1,2.94,2,8.26,4.13,16.35t4.3,16.27h-4.34ZM104.67,28l-3.58-13.8c-.39-1.08-.73-2-1-2.89A22.05,22.05,0,0,0,99.14,9a5.06,5.06,0,0,0-1.5-2.13,2.77,2.77,0,0,0-1.78-.64,2.82,2.82,0,0,0-1.71.73,4.2,4.2,0,0,0-1.23,1.87c-.23.57-.41,1.07-.56,1.49s-.27.84-.38,1.24-.21.81-.3,1.23a14.24,14.24,0,0,1-.38,1.49L87.72,28Z"/><path class="cls-2" d="M154.24,3.16h4.34V36.21a7.18,7.18,0,0,1-.85,3.62,8,8,0,0,1-2.08,2.42A8.89,8.89,0,0,1,153,43.66a8.51,8.51,0,0,1-2.55.47q-.34-.6-1.92-3.15c-1.05-1.71-2.3-3.72-3.75-6l-4.64-7.5q-2.47-4-4.6-7.49t-3.66-6.05c-1-1.7-1.62-2.75-1.79-3.15l-.08,33h-4.6l.08-40.54h4.18l22.82,37a2.27,2.27,0,0,0,1.49-1.83,20,20,0,0,0,.3-4Z"/></g></g></svg>