<svg xmlns="http://www.w3.org/2000/svg" viewBox="0 0 46.62 41.78"><defs><style>.cls-1{fill:#fff;}</style></defs><title>planeasyAsset 6plane</title><g id="Layer_2" data-name="Layer 2"><g id="Home_Screen" data-name="Home Screen"><g id="Marquee"><path class="cls-1" d="M45.51,19.35a8.14,8.14,0,0,0-3.95-1.21c-2.49-.11-5-.33-7.47-.39a3,3,0,0,1-2.45-1.3C27.77,11.59,23.76,6.85,20,1.92,18.36-.2,16.26.41,14,0c2.54,5,4.89,9.78,7.36,14.49,1.81,3.47,1.87,3.43-2,3.71S11.77,18.7,8,19a1.63,1.63,0,0,1-1.92-1c-.86-1.71-1.94-3.31-2.79-5-.68-1.38-1.82-1-2.86-1-.69,0-.36.59-.27.93.46,1.74.92,3.48,1.44,5.21a19.12,19.12,0,0,1,0,5C1.18,24.8.72,26.42.36,28.06c-.11.53-.78,1.4,0,1.6s2,.59,2.64-.57c1.08-1.85,2.21-3.68,3.33-5.51.29-.48.48-1,1.27-.95,5.08.46,10.16.88,15.46,1.34L14,41.78c2.68,0,4.83-.05,6.6-2.49,3.41-4.68,7.26-9,10.86-13.6a3.64,3.64,0,0,1,3-1.63c2.5,0,5-.26,7.47-.41a6.87,6.87,0,0,0,3.66-.93C47,21.73,47,20.25,45.51,19.35Z"/></g></g></g></svg>