<svg xmlns="http://www.w3.org/2000/svg" viewBox="0 0 168.93 98.83"><defs><style>.cls-1{fill:#f28d8b;}.cls-2{fill:#9ad7d9;}</style></defs><title>planeasyAsset 3</title><g id="Layer_2" data-name="Layer 2"><g id="Layer_1-2" data-name="Layer 1"><rect class="cls-1" y="88.79" width="10.04" height="10.04" rx="4.47" ry="4.47"/><rect class="cls-1" y="52.07" width="10.04" height="10.04" rx="4.47" ry="4.47"/><rect class="cls-1" x="15.06" y="55.33" width="24.34" height="3.52"/><rect class="cls-1" x="14.47" y="92.05" width="24.34" height="3.52"/><path class="cls-1" d="M30.06,74.6a4.49,4.49,0,0,0-2.18-.66c-1.37-.06-2.74-.19-4.11-.22A1.6,1.6,0,0,1,22.43,73c-2.13-2.67-4.34-5.27-6.42-8C15.12,63.85,14,64.18,12.7,64c1.4,2.76,2.69,5.38,4.05,8,1,1.91,1,1.89-1.12,2s-4.13.27-6.2.45a.91.91,0,0,1-1.06-.55c-.47-.94-1.07-1.81-1.53-2.76-.37-.75-1-.55-1.58-.53-.37,0-.19.33-.14.51.25,1,.5,1.92.79,2.87a10.36,10.36,0,0,1,0,2.74c-.23.9-.48,1.79-.68,2.69-.06.29-.43.77,0,.88S6.32,80.6,6.7,80c.6-1,1.22-2,1.83-3,.16-.26.27-.57.7-.53,2.79.26,5.59.49,8.5.74l-5,9.8c1.47,0,2.65,0,3.63-1.37,1.87-2.58,4-5,6-7.48a2,2,0,0,1,1.66-.9c1.37,0,2.74-.14,4.11-.22a3.81,3.81,0,0,0,2-.51A1,1,0,0,0,30.06,74.6Z"/><path class="cls-1" d="M73.71,83.33H55L51.83,95.6H47.4l7.75-30.92c.45-1.36.91-2.67,1.36-3.92a14.19,14.19,0,0,1,1.66-3.28,7,7,0,0,1,2.51-2.21,8.48,8.48,0,0,1,7.2.13,8.12,8.12,0,0,1,2.39,2A10.27,10.27,0,0,1,71.84,60a30.23,30.23,0,0,1,1,2.94Q74.92,71.23,77,79.33t4.3,16.27H77Zm-.85-3.41L69.29,66.13c-.4-1.08-.74-2-1-2.9a21.86,21.86,0,0,0-.93-2.38,5,5,0,0,0-1.49-2.13,2.7,2.7,0,0,0-1.79-.64,2.87,2.87,0,0,0-1.71.72,4.23,4.23,0,0,0-1.23,1.88c-.23.56-.41,1.06-.55,1.49s-.27.83-.39,1.23-.21.81-.3,1.24-.21.92-.38,1.49L55.91,79.92Z"/><path class="cls-1" d="M119.62,84.61a5.07,5.07,0,0,0-2.21-4.18,15.92,15.92,0,0,0-5-2.08c-2-.48-4.06-.9-6.3-1.24a27.68,27.68,0,0,1-6.22-1.66,12,12,0,0,1-4.72-3.32c-1.25-1.45-1.85-3.53-1.79-6.26a9.1,9.1,0,0,1,1.45-5.11,12.5,12.5,0,0,1,3.62-3.66,16.06,16.06,0,0,1,4.89-2.17,19.48,19.48,0,0,1,9.71-.22,17.86,17.86,0,0,1,4.3,1.54,12.32,12.32,0,0,1,3.5,2.64,8.32,8.32,0,0,1,2,3.83h-4.18A9.63,9.63,0,0,0,116.43,60a10,10,0,0,0-2.56-1.49,11.11,11.11,0,0,0-2.68-.68,22,22,0,0,0-2.64-.17,17.24,17.24,0,0,0-3.45.38,10.72,10.72,0,0,0-3.36,1.32,7.83,7.83,0,0,0-2.56,2.56,6.42,6.42,0,0,0-.85,4,6,6,0,0,0,2.13,4.73,12.67,12.67,0,0,0,4.81,2.17,52.33,52.33,0,0,0,6.17,1.06,29.74,29.74,0,0,1,6.18,1.37,11.49,11.49,0,0,1,4.81,3.11q2,2.13,2.13,6.3A9.35,9.35,0,0,1,123.2,90a12.22,12.22,0,0,1-3.83,3.74,17.47,17.47,0,0,1-5.29,2.18,24.71,24.71,0,0,1-5.62.68,29.65,29.65,0,0,1-4.72-.39,18.09,18.09,0,0,1-4.69-1.4A14.56,14.56,0,0,1,95,92.06a11.7,11.7,0,0,1-2.85-4.47h4.34a6.54,6.54,0,0,0,2.47,2.9,16.67,16.67,0,0,0,3.58,1.74,17.54,17.54,0,0,0,3.66.85,9.76,9.76,0,0,0,2.73,0,38.21,38.21,0,0,0,4.13-.9,11.87,11.87,0,0,0,3.45-1.53,7.44,7.44,0,0,0,2.3-2.47A7.16,7.16,0,0,0,119.62,84.61Z"/><path class="cls-1" d="M149.86,79.24a4.54,4.54,0,0,1-1.79-1.62c-.57-.79-.94-1.33-1.11-1.61q-1.36-2.13-2.85-4.77t-3-5.45l-3-5.54c-1-1.82-1.92-3.49-2.77-5h4.26c1.65,3.13,3.43,6.32,5.37,9.59s3.71,6.34,5.36,9.24c.68,1.25,1.24,1.9,1.66,2s1-.51,1.75-1.71q2.72-4.42,5.66-9.41t5.58-9.67h4q-1.37,2.47-2.85,5.2c-1,1.82-2,3.63-3,5.45L160,71.28q-1.53,2.68-2.9,5a14.46,14.46,0,0,1-1.15,1.58,4.92,4.92,0,0,1-1.57,1.32V95.77h-4.51Z"/><path class="cls-2" d="M21.53.77a15.73,15.73,0,0,1,4.21.64,11.51,11.51,0,0,1,4.18,2.22,13,13,0,0,1,3.23,4.13,14.58,14.58,0,0,1,1.41,6.39,10.62,10.62,0,0,1-1,4.55,10.86,10.86,0,0,1-2.73,3.62,13.16,13.16,0,0,1-4.17,2.43,15.19,15.19,0,0,1-5.32.89H9.6c0,2.79-.08,5.55-.08,8.31v7.28H5.17V.77Zm-.85,21.55a20.8,20.8,0,0,0,3.57-.47,11,11,0,0,0,3.28-1.23,6.62,6.62,0,0,0,2.39-2.34,7.55,7.55,0,0,0,.89-3.88,11.6,11.6,0,0,0-1-5.07,9.3,9.3,0,0,0-5.83-5,12.43,12.43,0,0,0-3.41-.51H9.6V22.41Z"/><path class="cls-2" d="M73.91,41.23H62.49a37.53,37.53,0,0,1-5.79-.6,11,11,0,0,1-4.73-2,10.13,10.13,0,0,1-3.15-4.47,22,22,0,0,1-1.15-7.8V.6h4.18l.08,25.81a15.26,15.26,0,0,0,.9,6.26,7.72,7.72,0,0,0,2.64,3.41,8.77,8.77,0,0,0,3.87,1.45,36.06,36.06,0,0,0,4.6.29h10Z"/><path class="cls-2" d="M110.7,28.79H92L88.81,41.06H84.38l7.75-30.92c.45-1.36.91-2.66,1.36-3.91A14.38,14.38,0,0,1,95.15,3,7.09,7.09,0,0,1,97.67.73,7.49,7.49,0,0,1,101.5,0a7.64,7.64,0,0,1,3.36.85,7.88,7.88,0,0,1,2.39,2,9.94,9.94,0,0,1,1.57,2.68c.4,1,.74,2,1,2.94q2,8.26,4.13,16.35t4.3,16.27h-4.35Zm-.85-3.4-3.58-13.8c-.4-1.08-.74-2-1-2.89a24.31,24.31,0,0,0-.94-2.39,5,5,0,0,0-1.49-2.13A2.74,2.74,0,0,0,101,3.54a2.82,2.82,0,0,0-1.7.73,4.3,4.3,0,0,0-1.24,1.87c-.22.57-.41,1.06-.55,1.49s-.27.84-.38,1.24a11.06,11.06,0,0,0-.3,1.23,15.24,15.24,0,0,1-.39,1.49L92.9,25.39Z"/><path class="cls-2" d="M159.41.52h4.35v33a7.26,7.26,0,0,1-.85,3.62,7.91,7.91,0,0,1-2.09,2.43A8.84,8.84,0,0,1,158.14,41a8.57,8.57,0,0,1-2.56.47c-.23-.4-.86-1.45-1.91-3.16l-3.75-6q-2.17-3.49-4.64-7.5t-4.6-7.49q-2.13-3.5-3.66-6.05c-1-1.7-1.62-2.75-1.79-3.15l-.09,33h-4.6L130.63.52h4.17l22.83,37a2.28,2.28,0,0,0,1.49-1.83,21.07,21.07,0,0,0,.29-4Z"/></g></g></svg>