<?xml version="1.0" encoding="utf-8"?>
<!-- Generator: Adobe Illustrator 22.1.0, SVG Export Plug-In . SVG Version: 6.00 Build 0)  -->
<svg version="1.1" id="Capa_1" xmlns="http://www.w3.org/2000/svg" xmlns:xlink="http://www.w3.org/1999/xlink" x="0px" y="0px"
	 viewBox="0 0 512 512" style="enable-background:new 0 0 512 512;" xml:space="preserve">
<style type="text/css">
	.st0{fill:#728699;}
</style>
<g>
	<g>
		<rect x="247.5" y="162.2" class="st0" width="17.1" height="324.3"/>
	</g>
</g>
<g>
	<g>
		<path class="st0" d="M443.4,487.4c-13.2,10-31.6,10-44.7,0c-19.2-14.5-46-14.5-65.3,0c-13.2,10-31.6,10-44.7,0
			c-19.2-14.5-46.1-14.5-65.3,0c-13.2,10-31.6,10-44.7,0c-19.2-14.5-46-14.5-65.3,0c-13.2,10-31.6,10-44.7,0
			c-19.2-14.5-46-14.5-65.3,0L13.6,501c13.2-9.9,31.5-9.9,44.7,0c19.2,14.6,46.1,14.6,65.4,0c13.1-10,31.5-9.9,44.7,0
			c9.6,7.3,21.2,11,32.7,11c11.5,0,23.1-3.7,32.7-11c13.2-10,31.5-9.9,44.7,0c19.2,14.6,46.1,14.6,65.4,0c13.2-10,31.5-9.9,44.6,0
			c19.2,14.6,46.1,14.6,65.4,0c13.2-10,31.5-9.9,44.7,0l10.3-13.6C489.4,472.9,462.6,472.9,443.4,487.4z"/>
	</g>
</g>
<g>
	<g>
		<path class="st0" d="M409.6,68.3H102.4c-4.7,0-8.5,3.8-8.5,8.5v136.6h17.1v-128h290.2v128h17.1V76.8
			C418.2,72.1,414.3,68.3,409.6,68.3z"/>
	</g>
</g>
<g>
	<g>
		<path class="st0" d="M291,7.6c-0.5-4.3-4.1-7.6-8.5-7.6h-53.1c-4.3,0-8,3.3-8.5,7.6l-7.6,68.3l17,1.9l6.8-60.7h37.8l6.7,60.7
			l17-1.9L291,7.6z"/>
	</g>
</g>
<g>
	<g>
		<rect x="196.3" class="st0" width="119.5" height="17.1"/>
	</g>
</g>
<g>
	<g>
		<path class="st0" d="M481,231l-185.1-71.2c-12.7-4.9-26-7.4-39.7-7.4c-0.1,0-0.1,0-0.2,0l0,17.1c0.1,0,0.1,0,0.2,0
			c11.5,0,22.8,2.1,33.5,6.3l179.2,68.9c-6.4,79.9-34.4,156.4-81.1,221.8l-10.8,15.1l13.9,9.9l10.7-15.1
			c49.7-69.6,79-151.5,84.7-236.8C486.6,235.8,484.4,232.4,481,231z"/>
	</g>
</g>
<g>
	<g>
		<path class="st0" d="M255.8,152.4c-13.6,0-27,2.5-39.6,7.4L31.1,231c-3.5,1.3-5.7,4.8-5.5,8.5c5.7,85.3,35,167.2,84.7,236.8
			l10.8,15.1l13.9-9.9l-10.8-15.1c-46.7-65.3-74.6-141.8-81.1-221.7l179.2-68.9c10.7-4.1,22-6.3,33.5-6.3c0.1,0,0.1,0,0.2,0l0-17.1
			C256,152.4,255.9,152.4,255.8,152.4z"/>
	</g>
</g>
<g>
	<g>
		<rect x="102.4" y="443.8" class="st0" width="307.2" height="17.1"/>
	</g>
</g>
<g>
	<g>
		<path class="st0" d="M278.2,204.5c-14.3-5.7-30.1-5.7-44.4,0L39.5,282.3l6.3,15.8l194.3-77.7c10.2-4.1,21.5-4.1,31.7,0l194.3,77.7
			l6.3-15.8L278.2,204.5z"/>
	</g>
</g>
<g>
	<g>
		<rect x="247.5" y="102.4" class="st0" width="17.1" height="17.1"/>
	</g>
</g>
<g>
	<g>
		<rect x="213.3" y="102.4" class="st0" width="17.1" height="17.1"/>
	</g>
</g>
<g>
	<g>
		<rect x="179.2" y="102.4" class="st0" width="17.1" height="17.1"/>
	</g>
</g>
<g>
	<g>
		<rect x="145.1" y="102.4" class="st0" width="17.1" height="17.1"/>
	</g>
</g>
<g>
	<g>
		<rect x="281.6" y="102.4" class="st0" width="17.1" height="17.1"/>
	</g>
</g>
<g>
	<g>
		<rect x="315.7" y="102.4" class="st0" width="17.1" height="17.1"/>
	</g>
</g>
<g>
	<g>
		<rect x="349.9" y="102.4" class="st0" width="17.1" height="17.1"/>
	</g>
</g>
<g>
	<g>
		<rect x="110.9" y="102.4" class="st0" width="17.1" height="17.1"/>
	</g>
</g>
<g>
	<g>
		<rect x="384" y="102.4" class="st0" width="17.1" height="17.1"/>
	</g>
</g>
<g>
	<g>
		<rect x="247.5" y="136.6" class="st0" width="17.1" height="17.1"/>
	</g>
</g>
<g>
	<g>
		<rect x="213.3" y="136.6" class="st0" width="17.1" height="17.1"/>
	</g>
</g>
<g>
	<g>
		<rect x="179.2" y="136.6" class="st0" width="17.1" height="17.1"/>
	</g>
</g>
<g>
	<g>
		<rect x="145.1" y="136.6" class="st0" width="17.1" height="17.1"/>
	</g>
</g>
<g>
	<g>
		<rect x="281.6" y="136.6" class="st0" width="17.1" height="17.1"/>
	</g>
</g>
<g>
	<g>
		<rect x="315.7" y="136.6" class="st0" width="17.1" height="17.1"/>
	</g>
</g>
<g>
	<g>
		<rect x="349.9" y="136.6" class="st0" width="17.1" height="17.1"/>
	</g>
</g>
<g>
	<g>
		<rect x="110.9" y="136.6" class="st0" width="17.1" height="17.1"/>
	</g>
</g>
<g>
	<g>
		<rect x="384" y="136.6" class="st0" width="17.1" height="17.1"/>
	</g>
</g>
<g>
	<g>
		<rect x="145.1" y="170.7" class="st0" width="17.1" height="17.1"/>
	</g>
</g>
<g>
	<g>
		<rect x="349.9" y="170.7" class="st0" width="17.1" height="17.1"/>
	</g>
</g>
<g>
	<g>
		<rect x="110.9" y="170.7" class="st0" width="17.1" height="17.1"/>
	</g>
</g>
<g>
	<g>
		<rect x="384" y="170.7" class="st0" width="17.1" height="17.1"/>
	</g>
</g>
<g>
	<g>
		<rect x="196.3" y="34.1" class="st0" width="34.1" height="17.1"/>
	</g>
</g>
<g>
	<g>
		<rect x="281.6" y="34.1" class="st0" width="34.1" height="17.1"/>
	</g>
</g>
<g>
	<g>
		<rect x="162.1" y="17.1" class="st0" width="17.1" height="59.7"/>
	</g>
</g>
<g>
	<g>
		<rect x="332.8" y="17.1" class="st0" width="17.1" height="59.7"/>
	</g>
</g>
<g>
	<g>
		<rect x="128" y="17.1" class="st0" width="17.1" height="59.7"/>
	</g>
</g>
<g>
	<g>
		<rect x="367" y="17.1" class="st0" width="17.1" height="59.7"/>
	</g>
</g>
</svg>
