<?xml version="1.0" encoding="utf-8"?>
<!-- Generator: Adobe Illustrator 22.1.0, SVG Export Plug-In . SVG Version: 6.00 Build 0)  -->
<svg version="1.1" id="Capa_1" xmlns="http://www.w3.org/2000/svg" xmlns:xlink="http://www.w3.org/1999/xlink" x="0px" y="0px"
	 viewBox="0 0 512 512" style="enable-background:new 0 0 512 512;" xml:space="preserve">
<style type="text/css">
	.st0{fill:#728699;}
</style>
<g>
	<g>
		<path class="st0" d="M289.4,23.1c-4.5-10.5-13.3-18.5-24.5-22C248.4-3.1,231,4.8,223.5,20c-12.3,24.8-18.8,52.5-18.6,80.2V367
			c0,0.5,0.1,1.1,0.2,1.6l23,118.9c1.9,13.9,14,24.4,28,24.4c0,0,0,0,0,0c14.1,0,26.1-10.5,28-24l23-119.4c0.1-0.5,0.2-1.1,0.2-1.6
			V100.2C307.1,73.5,300.9,46.7,289.4,23.1z M290.1,366.2l-22.9,119c-0.8,5.5-5.6,9.7-11.2,9.7c-5.6,0-10.4-4.2-11.2-10.1
			l-22.9-118.6v-266c-0.1-25,5.7-50.1,16.9-72.6c4-8,13.2-12.2,21.5-10.1c6.1,1.9,11,6.4,13.7,12.6c10.5,21.7,16.1,45.9,16.2,70
			L290.1,366.2L290.1,366.2z"/>
	</g>
</g>
<g>
	<g>
		<path class="st0" d="M217.7,189.2c-2.6-1.5-5.8-1.6-8.4-0.2L4.7,299.8c-2.8,1.5-4.5,4.4-4.5,7.5v51.2c0,2.8,1.4,5.4,3.7,7
			c1.5,1,3.1,1.5,4.9,1.5c1,0,2-0.2,3-0.5l204.7-76.7c3.3-1.3,5.5-4.4,5.5-8v-85.3C221.9,193.5,220.3,190.7,217.7,189.2z
			 M204.8,275.9L17.2,346.2v-33.8l187.6-101.6V275.9z"/>
	</g>
</g>
<g>
	<g>
		<path class="st0" d="M507.4,299.8L302.7,189c-2.6-1.4-5.8-1.4-8.4,0.2c-2.6,1.5-4.2,4.3-4.2,7.3v85.3c0,3.6,2.2,6.7,5.5,8
			l204.7,76.7c1,0.4,2,0.5,3,0.5c1.7,0,3.4-0.5,4.8-1.5c2.3-1.6,3.7-4.2,3.7-7v-51.2C511.8,304.2,510.1,301.3,507.4,299.8z
			 M494.8,346.2l-187.6-70.4v-65l187.6,101.6V346.2z"/>
	</g>
</g>
<g>
	<g>
		<path class="st0" d="M136.6,196.5c-14.1,0-25.6,11.5-25.6,25.6v25.6h17.1v-25.6c0-4.7,3.8-8.5,8.5-8.5s8.5,3.8,8.5,8.5v8.5h17.1
			v-8.5C162.2,208,150.7,196.5,136.6,196.5z"/>
	</g>
</g>
<g>
	<g>
		<path class="st0" d="M59.9,239.1c-14.1,0-25.6,11.5-25.6,25.6v25.6h17.1v-25.6c0-4.7,3.8-8.5,8.5-8.5s8.5,3.8,8.5,8.5h17.1
			C85.5,250.6,74,239.1,59.9,239.1z"/>
	</g>
</g>
<g>
	<g>
		<path class="st0" d="M375.4,196.5c-14.1,0-25.6,11.5-25.6,25.6v8.5h17.1v-8.5c0-4.7,3.8-8.5,8.5-8.5s8.5,3.8,8.5,8.5v25.6H401
			v-25.6C401,208,389.5,196.5,375.4,196.5z"/>
	</g>
</g>
<g>
	<g>
		<path class="st0" d="M452.1,239.1c-14.1,0-25.6,11.5-25.6,25.6h17.1c0-4.7,3.8-8.5,8.5-8.5s8.5,3.8,8.5,8.5v25.6h17.1v-25.6
			C477.7,250.6,466.2,239.1,452.1,239.1z"/>
	</g>
</g>
<g>
	<g>
		<path class="st0" d="M237.5,478l-92.4,15.4v-19.2l81.1-48.7l-8.8-14.6l-85.3,51.2c-2.6,1.5-4.1,4.3-4.1,7.3v34.1
			c0,2.5,1.1,4.9,3,6.5c1.6,1.3,3.5,2,5.5,2c0.5,0,0.9,0,1.4-0.1l102.3-17.1L237.5,478z"/>
	</g>
</g>
<g>
	<g>
		<path class="st0" d="M379.8,462.1l-85.3-51.2l-8.8,14.6l81.1,48.7v19.2L274.5,478l-2.8,16.8L374,511.9c0.5,0.1,0.9,0.1,1.4,0.1
			c2,0,4-0.7,5.5-2c1.9-1.6,3-4,3-6.5v-34.1C383.9,466.4,382.3,463.6,379.8,462.1z"/>
	</g>
</g>
<g>
	<g>
		<path class="st0" d="M275.3,65.4c-2.8-8.3-10.7-13.7-19.4-13.9c-9,0.1-16.8,6-19.2,14.3l-5.8,17.1l16.2,5.5l5.9-17.4
			c0.4-1.4,1.7-2.4,3.1-2.4c1.4,0,2.7,0.9,3.1,2.3l5.8,17.5l16.2-5.4L275.3,65.4z"/>
	</g>
</g>
</svg>
