<?xml version="1.0" encoding="utf-8"?>
<!-- Generator: Adobe Illustrator 22.1.0, SVG Export Plug-In . SVG Version: 6.00 Build 0)  -->
<svg version="1.1" id="Capa_1" xmlns="http://www.w3.org/2000/svg" xmlns:xlink="http://www.w3.org/1999/xlink" x="0px" y="0px"
	 viewBox="0 0 512 512" style="enable-background:new 0 0 512 512;" xml:space="preserve">
<style type="text/css">
	.st0{fill:#728699;}
</style>
<g>
	<g>
		<path class="st0" d="M166.5,247.5v17.1c0,9.4-7.7,17.1-17.1,17.1h-25.6c-9.4,0-17.1-7.7-17.1-17.1v-128c0-9.4,7.7-17.1,17.1-17.1
			h25.6c7,0,13.3,4.3,15.9,10.8l1.3,7.7l16.8-2.9l-1.5-8.5c-0.1-0.5-0.2-1-0.4-1.4c-4.8-13.6-17.7-22.8-32.2-22.8h0h-25.6
			c-18.8,0-34.1,15.3-34.1,34.1v128c0,18.8,15.3,34.1,34.1,34.1h25.6c18.8,0,34.1-15.3,34.1-34.1v-17.1H166.5z"/>
	</g>
</g>
<g>
	<g>
		<path class="st0" d="M136.7,25.6c-25.9,0-46.9,21.1-46.9,46.9s21.1,46.9,46.9,46.9s46.9-21.1,46.9-46.9S162.5,25.6,136.7,25.6z
			 M136.7,102.4c-16.5,0-29.9-13.4-29.9-29.9c0-16.5,13.4-29.9,29.9-29.9c16.5,0,29.9,13.4,29.9,29.9S153.1,102.4,136.7,102.4z"/>
	</g>
</g>
<g>
	<g>
		<path class="st0" d="M98.3,179.2H79.5c-13.2,0-23.9,10.7-23.9,23.9v37.5c0,13.2,10.7,23.9,23.9,23.9h18.8c4.7,0,8.5-3.8,8.5-8.5
			v-68.3C106.8,183,103,179.2,98.3,179.2z M89.7,247.5H79.5c-3.8,0-6.8-3.1-6.8-6.8v-37.5c0-3.8,3.1-6.8,6.8-6.8h10.2V247.5z"/>
	</g>
</g>
<g>
	<g>
		<path class="st0" d="M243.3,102.4h-34.1v17.1h34.1c14.1,0,25.6,11.5,25.6,25.6v145.1h-85.3v-59.7h-17.1v68.3
			c0,4.7,3.8,8.5,8.5,8.5h102.4c4.7,0,8.5-3.8,8.5-8.5V145.1C286,121.5,266.8,102.4,243.3,102.4z"/>
	</g>
</g>
<g>
	<g>
		<path class="st0" d="M276.1,31.9l-16.5,4.5c0.6,2,0.8,4.1,0.8,6.3v34.1c0,14.1-11.5,25.6-25.6,25.6c-14.1,0-25.6-11.5-25.6-25.6
			V42.6c0-2.1,0.3-4.2,0.8-6.2l-16.5-4.5c-1,3.5-1.5,7.2-1.4,10.8v34.1c0,23.5,19.1,42.7,42.7,42.7c23.5,0,42.7-19.1,42.7-42.7V42.7
			C277.5,39.1,277,35.4,276.1,31.9z"/>
	</g>
</g>
<g>
	<g>
		<path class="st0" d="M286,0h-59.7c-18.8,0-34.1,15.3-34.1,34.1v34.1c0,3.4,2.1,6.6,5.3,7.9c1.1,0.4,2.2,0.6,3.3,0.6
			c2.2,0,4.4-0.9,6-2.5l31.6-31.6h22.1c18.8,0,34.1-15.3,34.1-34.1C294.5,3.8,290.7,0,286,0z M260.4,25.6h-25.6
			c-2.3,0-4.4,0.9-6,2.5l-19.6,19.6V34.1c0-9.4,7.7-17.1,17.1-17.1h48.9C272.2,22.2,266.7,25.6,260.4,25.6z"/>
	</g>
</g>
<g>
	<g>
		<path class="st0" d="M361.9,448.4l-76.8-153.6l-15.3,7.6l73,146l-19.2,9.6l-68.1-120.7c-4.2-8-12.5-13-21.6-13
			c-13.6,0-24.7,11.1-24.7,24.7v37.8c-0.1,10.3-6.2,19.5-15.8,23.5l-74,31l-9.5-19l68.6-30.5c3.1-1.4,5.1-4.4,5.1-7.8v-85.3h-17.1
			v79.8l-71.7,31.9c-2.1,0.9-3.8,2.7-4.6,4.9c-0.8,2.2-0.6,4.6,0.4,6.7l17.1,34.1c2,4,6.8,5.8,10.9,4.1L200,426
			c15.8-6.6,26.1-22,26.2-39.2v-37.9c0-4.2,3.4-7.6,7.5-7.6c2.8,0,5.3,1.6,6.7,4.2l72.2,128c1.6,2.8,4.4,4.3,7.4,4.3
			c1.3,0,2.6-0.3,3.8-0.9l34.1-17.1C362.3,457.8,364,452.7,361.9,448.4z"/>
	</g>
</g>
<g>
	<g>
		<path class="st0" d="M136.2,475l-30.3-60.7c-1-2-2.8-3.6-4.9-4.3c-2.2-0.7-4.5-0.6-6.5,0.5l-34.1,17.1c-2,1-3.6,2.8-4.3,4.9
			c-0.7,2.1-0.5,4.5,0.5,6.5l29.4,58.8c4.4,8.8,13.1,14.2,22.9,14.2h4.4c9.8,0,18.6-5.5,22.9-14.2
			C139.7,490.6,139.7,482.1,136.2,475z M120.9,490.2c-1.5,2.9-4.4,4.7-7.6,4.7h-4.4c-3.3,0-6.2-1.8-7.6-4.7c0,0,0,0,0,0L75.6,439
			l18.9-9.4l26.5,53C122.1,485,122.1,487.8,120.9,490.2z"/>
	</g>
</g>
<g>
	<g>
		<path class="st0" d="M404.5,448.4c-6.8-13.6-23.4-19.1-37-12.3l-51.2,25.6c-4.2,2.1-5.9,7.2-3.8,11.5l17.1,34.1
			c1.5,3,4.5,4.7,7.6,4.7c1.3,0,2.6-0.3,3.8-0.9l51.2-25.6c0,0,0,0,0,0C405.8,478.7,411.3,462.1,404.5,448.4z M384.6,470.2L341,492
			l-9.4-18.9l43.5-21.8c5.2-2.6,11.6-0.5,14.2,4.7C391.9,461.3,389.7,467.6,384.6,470.2z"/>
	</g>
</g>
<g>
	<g>
		<path class="st0" d="M136.7,59.7c-7.1,0-12.8,5.7-12.8,12.8s5.7,12.8,12.8,12.8s12.8-5.7,12.8-12.8S143.7,59.7,136.7,59.7z
			 M136.7,76.8c-2.4,0-4.3-1.9-4.3-4.3c0-2.4,1.9-4.3,4.3-4.3c2.4,0,4.3,1.9,4.3,4.3S139,76.8,136.7,76.8z"/>
	</g>
</g>
<g>
	<g>
		<path class="st0" d="M401.4,159.2c-0.9-1.2-1.8-2.2-2.8-3.3c-5.6-5.6-13-8.6-20.9-8.6c0,0-0.1,0-0.1,0c-7.9,0-15.3,3.1-20.9,8.7
			l-36.1,36.1l-36.7-44l-13.1,10.9l42.7,51.2c1.5,1.8,3.8,3,6.2,3.1c2.4,0.1,4.7-0.8,6.4-2.5l42.7-42.7c2.4-2.4,5.5-3.7,8.9-3.7
			c0,0,0,0,0,0c3.3,0,6.5,1.3,8.8,3.6c0.4,0.4,0.9,0.9,1.2,1.4c3.7,5,3.2,12.1-1.2,16.5l-42.2,42.2c-6.8,6.8-16.1,10.8-25.8,10.8
			c0,0,0,0-0.1,0c-12.2,0-23.5-6.1-30.3-16.3l-3.8-5.5l-14.1,9.6l3.7,5.5c9.9,15,26.5,23.9,44.4,23.9c0.1,0,0.1,0,0.1,0
			c14.2,0,28-5.8,37.9-15.8l42.2-42.2C409.1,187.7,410.2,171,401.4,159.2z"/>
	</g>
</g>
<g>
	<g>
		<path class="st0" d="M259.1,233.6c-1.6-7.8-6.1-14.5-12.5-18.7L199,180.7l38.5-23.5c0.1-0.1,0.2-0.1,0.3-0.2
			c0.5-0.4,1-0.7,1.6-1.1c6.3-4.8,10.3-11.8,11.3-19.7c1-7.9-1.1-15.7-5.8-21.8c-9.5-12.7-27.2-15.8-40.2-7.1l-62.8,39.2
			c-11.3,7.5-18,20.1-18,33.6c0,13.6,6.7,26.1,17.8,33.5l71.7,50.7c5.1,3.4,10.8,5,16.5,5c9.1,0,18-4.2,23.9-12c0.4-0.5,0.7-1,1-1.4
			C259.1,249.4,260.7,241.4,259.1,233.6z M240.1,247.2c-4,5.4-11.6,6.7-17.1,3.1l-71.7-50.7c-6.5-4.3-10.4-11.6-10.4-19.5
			c0-7.8,3.9-15.1,10.1-19.3l62.9-39.2c2.2-1.4,4.6-2.1,7-2.1c3.9,0,7.8,1.8,10.3,5.2c2.1,2.7,3,6,2.5,9.3c-0.4,3.3-2.1,6.3-4.8,8.4
			l-49.8,30.5c-2.4,1.5-4,4.1-4.1,7c-0.1,2.9,1.2,5.6,3.6,7.3l58.3,41.9c2.8,1.9,4.8,4.7,5.5,8.1C243,240.4,242.4,243.8,240.1,247.2
			z"/>
	</g>
</g>
<g>
	<g>
		
			<rect x="195.1" y="163.9" transform="matrix(0.4834 -0.8754 0.8754 0.4834 -36.1332 283.7351)" class="st0" width="54.4" height="17.1"/>
	</g>
</g>
<g>
	<g>
		
			<rect x="164.5" y="247.5" transform="matrix(0.4472 -0.8944 0.8944 0.4472 -127.509 305.702)" class="st0" width="38.2" height="17.1"/>
	</g>
</g>
<g>
	<g>
		<rect x="98.3" y="247.5" class="st0" width="76.8" height="17.1"/>
	</g>
</g>
<g>
	<g>
		
			<rect x="396.9" y="131.6" transform="matrix(0.974 -0.2265 0.2265 0.974 -61.9456 100.1515)" class="st0" width="17.1" height="376.7"/>
	</g>
</g>
<g>
	<g>
		<rect x="132.4" y="102.4" class="st0" width="93.9" height="17.1"/>
	</g>
</g>
</svg>
